<?xml version="1.0" encoding="UTF-8" standalone="no"?>
<svg xmlns:dc="http://purl.org/dc/elements/1.1/" xmlns:cc="http://creativecommons.org/ns#" xmlns:rdf="http://www.w3.org/1999/02/22-rdf-syntax-ns#" xmlns:svg="http://www.w3.org/2000/svg" xmlns="http://www.w3.org/2000/svg" xml:space="preserve" style="enable-background:new 0 0 1346.2 299.2;" viewBox="0 0 1346.2 299.2" y="0px" x="0px" id="Kairos_Logo" version="1.1"><metadata id="metadata1274"><rdf:RDF><cc:Work rdf:about=""><dc:format>image/svg+xml</dc:format><dc:type rdf:resource="http://purl.org/dc/dcmitype/StillImage"/><dc:title/></cc:Work></rdf:RDF></metadata><defs id="defs1272"/><style id="style1117" type="text/css">
	.st0{fill:url(#K_2_);}
	.st1{fill:url(#K_3_);}
	.st2{fill:url(#I_1_);}
	.st3{fill:url(#R_1_);}
	.st4{fill:url(#O_1_);}
	.st5{fill:url(#S_1_);}
	.st6{fill:url(#SVGID_1_);}
	.st7{opacity:0.3;fill:#FFFFFF;enable-background:new    ;}
</style><g id="g1267"><g id="g1265"><g id="g1261"><linearGradient gradientTransform="matrix(1 0 0 -1 0 302)" y2="-132.5745" x2="108.1" y1="210.9083" x1="108.1" gradientUnits="userSpaceOnUse" id="K_2_"><stop id="stop1119" style="stop-color:#001AAF" offset="0"/><stop id="stop1121" style="stop-color:#001CB1" offset="2.724963e-03"/><stop id="stop1123" style="stop-color:#002FC0" offset="3.383578e-02"/><stop id="stop1125" style="stop-color:#003AC9" offset="6.586742e-02"/><stop id="stop1127" style="stop-color:#003ECC" offset="0.1"/><stop id="stop1129" style="stop-color:#12B9DD" offset="0.5007"/><stop id="stop1131" style="stop-color:#11AEDB" offset="0.831"/><stop id="stop1133" style="stop-color:#0E91D7" offset="0.8946"/><stop id="stop1135" style="stop-color:#0965D0" offset="1"/></linearGradient><rect height="217.1" width="31" class="st0" y="44.1" x="92.6" id="K_1_"/><linearGradient gradientTransform="matrix(1 0 0 -1 0 302)" y2="-132.5745" x2="208" y1="210.9083" x1="208" gradientUnits="userSpaceOnUse" id="K_3_"><stop id="stop1139" style="stop-color:#001AAF" offset="0"/><stop id="stop1141" style="stop-color:#001CB1" offset="2.724963e-03"/><stop id="stop1143" style="stop-color:#002FC0" offset="3.383578e-02"/><stop id="stop1145" style="stop-color:#003AC9" offset="6.586742e-02"/><stop id="stop1147" style="stop-color:#003ECC" offset="0.1"/><stop id="stop1149" style="stop-color:#12B9DD" offset="0.5007"/><stop id="stop1151" style="stop-color:#11AEDB" offset="0.831"/><stop id="stop1153" style="stop-color:#0E91D7" offset="0.8946"/><stop id="stop1155" style="stop-color:#0965D0" offset="1"/></linearGradient><polygon points="260,44.1 245.6,44.1 125.5,145.3 252.4,261.2 290.5,261.2 152.2,134.8    " class="st1" id="K"/><linearGradient gradientTransform="matrix(1 0 0 -1 0 302)" y2="-132.5745" x2="570.8" y1="210.9083" x1="570.8" gradientUnits="userSpaceOnUse" id="I_1_"><stop id="stop1159" style="stop-color:#001AAF" offset="0"/><stop id="stop1161" style="stop-color:#001CB1" offset="2.724963e-03"/><stop id="stop1163" style="stop-color:#002FC0" offset="3.383578e-02"/><stop id="stop1165" style="stop-color:#003AC9" offset="6.586742e-02"/><stop id="stop1167" style="stop-color:#003ECC" offset="0.1"/><stop id="stop1169" style="stop-color:#12B9DD" offset="0.5007"/><stop id="stop1171" style="stop-color:#11AEDB" offset="0.831"/><stop id="stop1173" style="stop-color:#0E91D7" offset="0.8946"/><stop id="stop1175" style="stop-color:#0965D0" offset="1"/></linearGradient><rect height="217.1" width="31" class="st2" y="44.1" x="555.3" id="I"/><linearGradient gradientTransform="matrix(1 0 0 -1 0 302)" y2="-132.5745" x2="736.65" y1="210.9083" x1="736.65" gradientUnits="userSpaceOnUse" id="R_1_"><stop id="stop1179" style="stop-color:#001AAF" offset="0"/><stop id="stop1181" style="stop-color:#001CB1" offset="2.724963e-03"/><stop id="stop1183" style="stop-color:#002FC0" offset="3.383578e-02"/><stop id="stop1185" style="stop-color:#003AC9" offset="6.586742e-02"/><stop id="stop1187" style="stop-color:#003ECC" offset="0.1"/><stop id="stop1189" style="stop-color:#12B9DD" offset="0.5007"/><stop id="stop1191" style="stop-color:#11AEDB" offset="0.831"/><stop id="stop1193" style="stop-color:#0E91D7" offset="0.8946"/><stop id="stop1195" style="stop-color:#0965D0" offset="1"/></linearGradient><path d="M748.7,152.7c7.8-1.9,15.1-4.5,21.5-8l0,0c6.4-3.4,12-7.5,16.5-12.1c4.5-4.6,8-9.7,10.5-15.4     c2.4-5.6,3.7-11.7,3.7-18.2c0-7.9-1.6-15.3-4.8-21.9s-8-12.4-14.3-17.3c-6.4-4.9-14.5-8.8-24.2-11.6c-9.8-2.8-21.4-4.2-34.5-4.2     H649v217.1h31V156h31.3L789,261.2h35.3l-80.5-107.3L748.7,152.7z M729.4,147.8c-7.4,2.3-15.6,3.5-24.4,3.5h-25V51.5h36.4     c7.2,0,14,1.2,20.1,3.6c6.2,2.4,11.5,5.8,16,10.1s8,9.5,10.6,15.6c2.5,6,3.8,12.6,3.8,19.7c0,7.8-1.6,14.9-4.8,21.2     c-3.2,6.3-7.6,11.7-13.2,16.1C743.4,142.1,736.8,145.5,729.4,147.8L729.4,147.8z" class="st3" id="R"/><linearGradient gradientTransform="matrix(1 0 0 -1 0 302)" y2="-132.5745" x2="963.4" y1="210.9083" x1="963.4" gradientUnits="userSpaceOnUse" id="O_1_"><stop id="stop1199" style="stop-color:#001AAF" offset="0"/><stop id="stop1201" style="stop-color:#001CB1" offset="2.724963e-03"/><stop id="stop1203" style="stop-color:#002FC0" offset="3.383578e-02"/><stop id="stop1205" style="stop-color:#003AC9" offset="6.586742e-02"/><stop id="stop1207" style="stop-color:#003ECC" offset="0.1"/><stop id="stop1209" style="stop-color:#12B9DD" offset="0.5007"/><stop id="stop1211" style="stop-color:#11AEDB" offset="0.831"/><stop id="stop1213" style="stop-color:#0E91D7" offset="0.8946"/><stop id="stop1215" style="stop-color:#0965D0" offset="1"/></linearGradient><path d="M1067.4,94.5c-5.1-8.3-11.3-15.9-18.6-22.7c-7.3-6.8-15.4-12.7-24.2-17.6     c-8.8-4.9-18.5-8.7-28.8-11.3s-21.2-4-32.4-4s-22.1,1.3-32.4,4c-10.3,2.7-20,6.5-28.8,11.3c-8.8,4.9-17,10.8-24.2,17.6     c-7.2,6.8-13.5,14.4-18.6,22.7s-9.1,17.3-11.9,26.8c-2.8,9.5-4.2,19.6-4.2,29.9c0,10.6,1.4,20.9,4.2,30.6     c2.8,9.8,6.8,19,11.9,27.5c5.1,8.5,11.3,16.3,18.6,23.3s15.4,13.1,24.2,18.1s18.5,8.9,28.8,11.7c10.3,2.8,21.2,4.1,32.4,4.1     s22.1-1.4,32.4-4.1c10.3-2.7,20-6.7,28.8-11.7c8.8-5,17-11.1,24.2-18.1c7.3-7,13.5-14.8,18.6-23.3s9.1-17.8,11.9-27.6     s4.2-20,4.2-30.5c0-10.3-1.4-20.4-4.2-29.9C1076.5,111.9,1072.5,102.8,1067.4,94.5z M1040.6,195.1c-3.6,13.4-8.9,25.2-15.7,35     c-7,9.9-15.7,17.8-25.9,23.3c-10.3,5.6-22.2,8.4-35.5,8.4c-13.6,0-25.7-2.8-36-8.4s-19-13.4-25.9-23.3c-6.8-9.8-12-21.6-15.5-35     c-3.4-13.3-5.2-28.1-5.2-43.8c0-15.5,1.7-30,5.2-43c3.5-13.1,8.7-24.6,15.5-34.2c6.9-9.6,15.6-17.3,26-22.6     c10.3-5.4,22.4-8.1,36-8.1c13.2,0,25.1,2.7,35.4,8.1c10.3,5.4,19,13,26,22.6c6.9,9.5,12.2,21,15.8,34.1c3.5,13,5.3,27.5,5.3,43     C1045.9,167,1044.1,181.8,1040.6,195.1z" class="st4" id="O"/><linearGradient gradientTransform="matrix(1 0 0 -1 0 302)" y2="-132.5745" x2="1192.8002" y1="210.9083" x1="1192.8002" gradientUnits="userSpaceOnUse" id="S_1_"><stop id="stop1219" style="stop-color:#001AAF" offset="0"/><stop id="stop1221" style="stop-color:#001CB1" offset="2.724963e-03"/><stop id="stop1223" style="stop-color:#002FC0" offset="3.383578e-02"/><stop id="stop1225" style="stop-color:#003AC9" offset="6.586742e-02"/><stop id="stop1227" style="stop-color:#003ECC" offset="0.1"/><stop id="stop1229" style="stop-color:#12B9DD" offset="0.5007"/><stop id="stop1231" style="stop-color:#11AEDB" offset="0.831"/><stop id="stop1233" style="stop-color:#0E91D7" offset="0.8946"/><stop id="stop1235" style="stop-color:#0965D0" offset="1"/></linearGradient><path d="M1263.8,185.9c-3.5-6-8-11.7-13.7-16.8c-5.7-5.2-12.3-10-19.7-14.4c-7.6-4.5-15.3-8.8-23.1-12.9     c-7.9-4.2-15.6-8.3-23.2-12.3c-7.7-4.1-14.7-8.4-20.7-12.9c-6.1-4.6-11.2-9.5-15-14.6c-4.1-5.4-6.1-11.5-6.1-18.1     c0-4.6,1-9.2,2.9-13.6s4.9-8.4,8.7-11.9c3.8-3.4,8.6-6.2,14.2-8.4c5.7-2.1,12.3-3.2,19.7-3.2c8.2,0,15.8,1.2,22.4,3.5     c6.7,2.3,12.7,5.7,17.8,10c5.1,4.3,9.6,9.5,13.2,15.4c3,4.9,5.6,10.3,7.7,16l13.3-6.1c-5.3-14.7-13.5-26.2-24.4-34.1     c-11.6-8.4-27.9-12.7-48.3-12.7c-11.4,0-21.5,1.5-30.2,4.4c-8.6,2.9-15.9,6.9-21.8,12c-5.8,5-10.3,11-13.3,17.9     s-4.5,14.5-4.5,22.5s1.7,15.1,4.9,21.2c3.3,6.2,7.8,11.9,13.2,17c5.5,5.1,12,9.8,19.1,14c7.3,4.3,14.9,8.5,22.4,12.4     c7.7,4,15.2,7.9,22.6,11.8c7.5,4,14.3,8.3,20.2,12.9c6,4.7,10.9,9.9,14.6,15.5c3.9,5.8,5.9,12.6,5.9,20.1     c0,6.2-1.5,11.9-4.3,16.7c-2.8,4.7-6.5,8.8-11.1,12c-4.5,3.2-9.7,5.6-15.5,7.2c-5.7,1.6-11.5,2.4-17.3,2.4     c-7.6,0-14.9-1.1-21.6-3.3c-6.8-2.2-13.1-5.4-18.6-9.7c-5.6-4.2-10.5-9.4-14.6-15.5c-3.5-5.1-6.4-10.8-8.7-17.1l-14.1,5.8     c2.7,6.8,6,13,9.9,18.4c4.4,6.2,9.7,11.5,15.8,15.7c6.1,4.3,13.4,7.6,21.4,9.8c8.1,2.3,17.5,3.4,27.9,3.4     c12.9,0,24.3-1.6,33.9-4.9c9.6-3.2,17.6-7.7,24-13.2c6.3-5.5,11.2-11.9,14.3-19.2c3.2-7.3,4.8-15.3,4.8-23.7     C1268.8,198.4,1267.1,191.8,1263.8,185.9z" class="st5" id="S"/><g id="Drop"><linearGradient gradientTransform="matrix(1 0 0 -1 0 302)" y2="-132.5745" x2="420.55" y1="210.9083" x1="420.55" gradientUnits="userSpaceOnUse" id="SVGID_1_"><stop id="stop1239" style="stop-color:#001AAF" offset="0"/><stop id="stop1241" style="stop-color:#001CB1" offset="2.724963e-03"/><stop id="stop1243" style="stop-color:#002FC0" offset="3.383578e-02"/><stop id="stop1245" style="stop-color:#003AC9" offset="6.586742e-02"/><stop id="stop1247" style="stop-color:#003ECC" offset="0.1"/><stop id="stop1249" style="stop-color:#12B9DD" offset="0.5007"/><stop id="stop1251" style="stop-color:#11AEDB" offset="0.831"/><stop id="stop1253" style="stop-color:#0E91D7" offset="0.8946"/><stop id="stop1255" style="stop-color:#0965D0" offset="1"/></linearGradient><path id="path1258" d="M435.2,185.1l91.4,76.3l-106-227.7L314.5,261.4l91.4-76.3c0,0-12.6-10.8-5.9-32.8      c6.4-21.3,19.7-65.5,20.5-68.3c0.8,2.9,14.1,47.1,20.5,68.3C447.8,174.3,435.2,185.1,435.2,185.1z" class="st6"/></g></g><path id="path1263" d="M1081.3,190.5c-87.5,17.2-120.4,23.9-172.8,24.3c-52.4-0.4-85.3-7.1-172.8-24.3    c-87.3-17.2-154.4-31-224.6-31.8l0,0c-1.2,0-2.3,0-3.5,0s-2.3,0-3.5,0l0,0c-70.2,0.9-137.3,14.7-224.6,31.8    c-90.2,17.7-122.4,24.3-177.8,24.3C46.4,214.8,0,204.3,0,204.3v7.2C63,225,92.8,227,145.9,227c53.2,0,76.4-4.6,188.3-20    c90.6-12.5,150.4-13.6,169.9-13.6v0.1c0,0,1.2,0,3.5-0.1c2.3,0,3.5,0.1,3.5,0.1v-0.1c19.5,0,79.3,1.1,169.9,13.6    c112,15.4,135.2,20,188.3,20c14.4,0,27-0.1,39.1-0.6c12.1,0.5,24.8,0.6,39.1,0.6c53.2,0,76.4-4.6,188.3-20    c112-15.4,176.9-13.5,176.9-13.5v-34.8C1237.4,158.6,1168,173.5,1081.3,190.5z" class="st7"/></g></g></svg>